<?xml version="1.0" encoding="utf-8"?>
<!-- Generator: Adobe Illustrator 24.2.3, SVG Export Plug-In . SVG Version: 6.00 Build 0)  -->
<svg version="1.1" id="Layer_1" xmlns="http://www.w3.org/2000/svg" xmlns:xlink="http://www.w3.org/1999/xlink" x="0px" y="0px"
	 viewBox="0 0 500 500" style="enable-background:new 0 0 500 500;" xml:space="preserve">
<style type="text/css">
	.st0{fill:#30CDFC;}
	.st1{fill:#FFFFFF;}
</style>
<circle class="st0" cx="250" cy="250" r="250"/>
<path class="st1" d="M303.6,179.3l-14.9-25.9c-1.9-3.3-6.8-3.8-10.1-1.9l-14.9,8.6l-0.1,0c-6.2-6.4-14.3-13.1-22.9-17.9l4.4-16.7
	c1-3.7-1.2-7.5-4.9-8.5l-28.8-7.8c-3.7-1-7.5,1.2-8.5,4.9l-4.5,16.6l0,0c-9.6-0.3-18.1,0.2-28.7,3.5l-8.6-14.9
	c-1.9-3.3-6.5-4.6-9.8-2.7l-25.9,14.9c-3.3,1.9-3,5.6-1.1,9l8.6,14.9l0,0.1c-8.3,7.3-13.7,14.6-18.5,23.2l-17.2-4.1
	c-3.7-1-7.5,1.2-8.5,4.9l-7.8,28.8c-1,3.7,1.2,7.5,4.9,8.5l16.6,4.5l0.1,0.1c-0.3,9.6,0.3,18.4,3.7,28.9l-14.9,8.6
	c-3.3,1.9-3.8,5.3-1.9,8.6l14.9,25.9c1.9,3.3,4.8,4.2,8.1,2.3l14.9-8.6l0.1,0c7.3,8.3,14.5,13.4,23.1,18.2l-4.3,17
	c-1,3.7,1.2,7.5,4.9,8.5l28.9,7.8c3.7,1,7.6-1.2,8.6-4.9l4.7-16.7l0.4-0.3c9.6,0.3,18.9-0.6,29.5-4l8.5,14.9c1.9,3.3,4.5,5,7.8,3.1
	l25.9-14.9c3.3-1.9,5-6,3.1-9.3l-8.6-14.9l0-0.1c8.3-7.3,12.9-14.1,17.6-22.8l16.4,4.6c3.7,1,7.5-1.2,8.5-4.9l7.8-28.9
	c1-3.7-1.2-7.5-4.9-8.5l-16.6-4.6l-0.2-0.2c0.3-9.6-0.5-18.7-3.8-29.2l14.9-8.5C303.1,186.4,305.5,182.6,303.6,179.3z M162.1,197
	c3.3-4.2,7.5-7.9,12.4-10.7c6.1-3.5,12.7-5.4,19.3-5.7c0.7,0,1.4,0,2.1,0c0.3,0,0.7,0,1,0c0.7,0,1.4,0.1,2.1,0.1
	c0.7,0.1,1.4,0.1,2.1,0.2c0.3,0,0.7,0.1,1,0.1c1.4,0.2,2.7,0.5,4.1,0.8c0.3,0.1,0.7,0.2,1,0.3c0.7,0.2,1.3,0.4,2,0.6
	c0.3,0.1,0.7,0.2,1,0.3c0.6,0.2,1.3,0.5,1.9,0.7c0.3,0.1,0.6,0.3,1,0.4c0.4,0.2,0.9,0.4,1.3,0.6c0.5,0.2,1,0.5,1.5,0.7
	c0.6,0.3,1.2,0.7,1.8,1c0.8,0.5,1.6,1,2.4,1.5c0.4,0.3,0.8,0.5,1.1,0.8c0.6,0.4,1.1,0.8,1.7,1.3c0.8,0.7,1.6,1.3,2.4,2.1
	c0.5,0.5,1,1,1.5,1.5c2.5,2.5,4.7,5.4,6.5,8.6c3.3,5.8,5.2,12,5.6,18.3c0.1,1,0.1,2.1,0.1,3.1c0,0.7,0,1.4-0.1,2.1
	c0,0.7-0.1,1.4-0.2,2.1c-0.2,1.7-0.4,3.4-0.8,5.1c-0.1,0.7-0.3,1.3-0.5,2c-0.3,1-0.6,2-0.9,3c-0.2,0.6-0.5,1.3-0.7,1.9
	c-0.1,0.3-0.3,0.6-0.4,1c-0.3,0.6-0.6,1.3-0.9,1.9c-0.5,0.9-0.9,1.8-1.5,2.7c-0.3,0.6-0.7,1.2-1.1,1.8c-3.6,5.5-8.5,10.3-14.6,13.8
	c-5.1,3-10.7,4.7-16.2,5.4c-0.7,0.1-1.4,0.2-2.1,0.2c-2.1,0.2-4.2,0.1-6.2,0c-0.7-0.1-1.4-0.1-2.1-0.2c-0.3,0-0.7-0.1-1-0.1
	c-1-0.1-2-0.3-3-0.6c-11.4-2.5-21.8-9.6-28.1-20.6c-3-5.2-4.8-10.8-5.4-16.4c-0.3-2.4-0.4-4.8-0.2-7.2c0-0.8,0.1-1.6,0.2-2.4
	c0.2-2,0.6-3.9,1-5.9c0.5-1.9,1.1-3.8,1.8-5.7c0.1-0.3,0.3-0.6,0.4-1c0.3-0.6,0.6-1.3,0.9-1.9c0.3-0.6,0.6-1.2,1-1.8
	c0.7-1.2,1.4-2.4,2.2-3.5c0.3-0.4,0.5-0.7,0.8-1.1C161.5,197.8,161.8,197.4,162.1,197z"/>
<path class="st1" d="M393.8,285.3l-14.8-11.5c-1.9-1.5-4.9-0.6-6.3,1.3l-6.6,8.5l0,0c-5.1-2.3-11.4-4.2-17.6-4.9l-1.4-10.7
	c-0.3-2.4-2.5-4.1-4.8-3.8l-18.6,2.3c-2.4,0.3-4.1,2.5-3.8,4.8l1.3,10.7l0,0c-5.6,2.1-10.5,4.4-15.8,8.9l-8.5-6.6
	c-1.9-1.5-4.9-1.1-6.3,0.8l-11.5,14.8c-1.5,1.9-0.4,4,1.5,5.5l8.5,6.6l0,0c-3.1,6.2-4.5,11.7-5.2,17.9l-11,1.7
	c-2.4,0.3-4.1,2.5-3.8,4.8l2.3,18.6c0.3,2.4,2.5,4.1,4.9,3.8l10.7-1.3l0.1,0c2.1,5.6,4.5,10.6,9,15.9l-6.6,8.5c-1.5,1.9-0.9,4,1,5.5
	l14.8,11.5c1.9,1.5,3.8,1.3,5.3-0.6l6.6-8.5l0,0c6.2,3.1,11.6,4.4,17.7,5.1l1.6,10.9c0.3,2.4,2.5,4,4.9,3.7l18.6-2.4
	c2.4-0.3,4.1-2.5,3.8-4.9l-1.3-10.8l0.2-0.3c5.6-2.1,10.8-4.9,16.2-9.3l8.5,6.6c1.9,1.5,3.8,1.8,5.3-0.1l11.5-14.8
	c1.5-1.9,1.5-4.7-0.4-6.1l-8.5-6.6l0,0c3.1-6.2,4.1-11.3,4.8-17.4l10.6-1.2c2.4-0.3,4.1-2.5,3.8-4.8l-2.3-18.6
	c-0.3-2.4-2.5-4.1-4.9-3.8l-10.8,1.3l-0.2-0.1c-2.1-5.6-4.7-10.7-9.2-16l6.6-8.5C395.2,289.6,395.7,286.8,393.8,285.3z M315.9,329.3
	c0.9-3.2,2.5-6.3,4.6-9.1c2.7-3.5,6.1-6.1,9.9-7.9c0.4-0.2,0.8-0.4,1.2-0.5c0.2-0.1,0.4-0.2,0.6-0.2c0.4-0.2,0.8-0.3,1.2-0.4
	c0.4-0.1,0.8-0.3,1.2-0.4c0.2-0.1,0.4-0.1,0.6-0.2c0.8-0.2,1.7-0.4,2.5-0.5c0.2,0,0.4-0.1,0.6-0.1c0.4-0.1,0.9-0.1,1.3-0.1
	c0.2,0,0.4,0,0.6,0c0.4,0,0.9,0,1.3,0c0.2,0,0.4,0,0.6,0c0.3,0,0.6,0,0.9,0c0.3,0,0.7,0,1,0.1c0.4,0,0.9,0.1,1.3,0.1
	c0.6,0.1,1.1,0.2,1.7,0.3c0.3,0.1,0.6,0.1,0.9,0.2c0.4,0.1,0.8,0.2,1.3,0.3c0.6,0.2,1.3,0.4,1.9,0.6c0.4,0.2,0.8,0.3,1.2,0.5
	c2,0.9,4,2,5.8,3.5c3.3,2.6,5.9,5.8,7.6,9.3c0.3,0.6,0.6,1.2,0.8,1.8c0.2,0.4,0.3,0.8,0.5,1.2c0.1,0.4,0.3,0.8,0.4,1.2
	c0.3,1,0.6,2.1,0.7,3.2c0.1,0.4,0.1,0.9,0.2,1.3c0.1,0.6,0.1,1.3,0.2,1.9c0,0.4,0,0.9,0,1.3c0,0.2,0,0.4,0,0.6c0,0.4,0,0.9-0.1,1.3
	c0,0.6-0.1,1.3-0.2,1.9c-0.1,0.4-0.1,0.9-0.2,1.3c-0.8,4.1-2.5,8-5.2,11.5c-2.3,2.9-5.1,5.3-8.1,7c-0.4,0.2-0.8,0.4-1.2,0.6
	c-1.2,0.6-2.4,1.1-3.6,1.5c-0.4,0.1-0.8,0.3-1.2,0.4c-0.2,0.1-0.4,0.1-0.6,0.2c-0.6,0.2-1.3,0.3-1.9,0.4c-7.2,1.3-14.9-0.4-21.2-5.3
	c-3-2.3-5.3-5.1-7-8.2c-0.7-1.3-1.4-2.7-1.8-4.1c-0.2-0.5-0.3-0.9-0.5-1.4c-0.3-1.2-0.6-2.4-0.8-3.7c-0.2-1.2-0.3-2.5-0.3-3.7
	c0-0.2,0-0.4,0-0.6c0-0.4,0-0.9,0.1-1.3c0-0.4,0.1-0.9,0.1-1.3c0.1-0.9,0.2-1.7,0.4-2.6c0.1-0.3,0.1-0.6,0.2-0.8
	C315.7,329.9,315.8,329.6,315.9,329.3z"/>
</svg>
