<?xml version="1.0" encoding="utf-8"?>
<!-- Generator: Adobe Illustrator 24.2.3, SVG Export Plug-In . SVG Version: 6.00 Build 0)  -->
<svg version="1.1" id="Layer_1" xmlns="http://www.w3.org/2000/svg" xmlns:xlink="http://www.w3.org/1999/xlink" x="0px" y="0px"
	 viewBox="0 0 500 500" style="enable-background:new 0 0 500 500;" xml:space="preserve">
<style type="text/css">
	.st0{fill:#30CDFC;}
	.st1{fill:#FFFFFF;}
</style>
<circle class="st0" cx="250" cy="250" r="250"/>
<ellipse transform="matrix(0.9871 -0.1602 0.1602 0.9871 -36.3582 51.6416)" class="st0" cx="302.1" cy="251.3" rx="15.9" ry="15.9"/>
<ellipse transform="matrix(0.7071 -0.7071 0.7071 0.7071 -104.3515 250.7448)" class="st0" cx="250.5" cy="251.3" rx="15.9" ry="15.9"/>
<ellipse transform="matrix(0.7071 -0.7071 0.7071 0.7071 -119.4745 214.2349)" class="st0" cx="198.9" cy="251.3" rx="15.9" ry="15.9"/>
<g>
	<path class="st1" d="M247.4,202.6l-0.2-91.9h105.8v273.6H155.6V202.5L247.4,202.6z M141.6,197.9v186.4v13.9h13.9h197.5H367v-13.9
		V110.7V96.8h-13.9H243.6L141.6,197.9z"/>
	
		<rect x="175.5" y="243.5" transform="matrix(-1 -1.224647e-16 1.224647e-16 -1 503.6569 499.2685)" class="st1" width="152.7" height="12.2"/>
	
		<rect x="175.5" y="285.8" transform="matrix(-1 -1.224647e-16 1.224647e-16 -1 503.6569 583.8438)" class="st1" width="152.7" height="12.2"/>
	
		<rect x="175.5" y="328.1" transform="matrix(-1 -1.224647e-16 1.224647e-16 -1 503.6569 668.4191)" class="st1" width="152.7" height="12.2"/>
</g>
</svg>
