<?xml version="1.0" encoding="utf-8"?>
<!-- Generator: Adobe Illustrator 24.2.3, SVG Export Plug-In . SVG Version: 6.00 Build 0)  -->
<svg version="1.1" id="Layer_1" xmlns="http://www.w3.org/2000/svg" xmlns:xlink="http://www.w3.org/1999/xlink" x="0px" y="0px"
	 viewBox="0 0 500 500" style="enable-background:new 0 0 500 500;" xml:space="preserve">
<style type="text/css">
	.st0{fill:#30CDFC;}
	.st1{fill:#FFFFFF;}
</style>
<circle class="st0" cx="250" cy="250" r="250"/>
<path class="st1" d="M100.6,158.5l142.1,105.1c4.4,3.2,11.2,3.3,15.6,0l142.1-104.7L100.6,158.5z"/>
<path class="st1" d="M201.5,245.2l-98.9,92.2c-1.6-2.7-2.7-5.8-2.7-9.1V170.3L201.5,245.2z"/>
<path class="st1" d="M290.2,251.8l99.5,93c-2.8,1.4-5.9,2.1-9.3,2.1H120.6c-3.1,0-6-0.6-8.6-1.8l99.4-92.9l39.1,29L290.2,251.8z"/>
<path class="st1" d="M401,170.2v158.1c0,3-1.1,5.9-2.5,8.4l-98.3-92L401,170.2z"/>
</svg>
