<?xml version="1.0" encoding="utf-8"?>
<!-- Generator: Adobe Illustrator 24.2.3, SVG Export Plug-In . SVG Version: 6.00 Build 0)  -->
<svg version="1.1" id="Layer_1" xmlns="http://www.w3.org/2000/svg" xmlns:xlink="http://www.w3.org/1999/xlink" x="0px" y="0px"
	 viewBox="0 0 500 500" style="enable-background:new 0 0 500 500;" xml:space="preserve">
<style type="text/css">
	.st0{fill:#30CDFC;}
	.st1{fill:#FFFFFF;}
</style>
<circle class="st0" cx="250" cy="250" r="250"/>
<path class="st1" d="M379.5,240.4c-1.6,1-3.2,1.8-5,2.3c-2,0.5-2.5,3.7-0.9,5.2c2.7,2.5,4.2,5.7,4.9,9.3c1.2,6.5-1.3,11.8-6.1,16.1
	c-2,1.7-4.2,3.1-6.6,4.2c-2.5,1.1-3.1,4.5-1,6.3c4.8,4.1,6.2,9.9,3.7,16c-2,5-5.3,9-10.1,11.6c-0.6,0.3-1.3,0.6-2,0.8
	c-1.7,0.6-2.4,1.3-2.5,3.1c-0.1,1.3,0.3,2.4,1.3,3.3c2.6,2.3,4.5,5,4.9,8.5c0.3,2.7-0.2,5.2-1.3,7.7c-1.7,3.7-4.4,6.7-7.4,9.3
	c-1.4,1.2-5.2,3.1-8.1,4.4c-1.6,0.7-6.5,1.7-7.9,2c-70.8,14.4-120.6-4.2-126.9-6.5c-1.3-0.5-5.7-3.3-6.9-3.4c-0.2,0-1.7-0.4-1.7-0.6
	V233.8c2.6-1.9,5.3-3.7,7.9-5.6c0.3-0.2,0.5-0.4,0.7-0.6c0.1-0.1,0.2-0.2,0.2-0.3c14.1-17.7,23.1-36.5,33.6-56.5
	c7-13.4,8.8-41.9,8.7-52.7c0-4.3,3.2-11.4,11.7-11.4c2.1,0,6.6,0.2,9.2,1.1c3.2,1.2,5.9,5.3,8.6,10.6c3.7,7.2,6,15.1,8.2,23
	c0.8,3,1.5,5.9,2,9c0.3,2.2,0.3,4.5,0.2,6.7c-0.2,2.6-0.3,5.1-0.6,7.7c-0.5,5-1.2,10-2.1,15c-0.9,5.4-1.9,10.7-3,16.1
	c0,0.1,0,0.1,0,0.2c0,0.4-0.1,0.8-0.2,1.3c-1.7,6.9,5.3,10.9,9.4,12.6c1.1,0.5,5.6,1,6.9,1c22.7,0,60.6-0.1,65.2-0.1
	c3.1,0,6.1-0.1,9.2,0.1c5,0.3,10.6,3.5,12.2,10.2C389.5,228.5,386.1,236.3,379.5,240.4z"/>
<path class="st1" d="M138.3,360.9H189c6,0,10.8-4.9,10.8-10.8V229c0-6-4.9-10.8-10.8-10.8h-50.7c-6,0-10.8,4.9-10.8,10.8v121.1
	C127.5,356,132.3,360.9,138.3,360.9z"/>
<path class="st1" d="M135.2,360.9h56.9c4.2,0,7.7-3.5,7.7-7.7v-64.6h-72.3v64.6C127.5,357.4,130.9,360.9,135.2,360.9z"/>
</svg>
