<?xml version="1.0" encoding="utf-8"?>
<!-- Generator: Adobe Illustrator 24.2.3, SVG Export Plug-In . SVG Version: 6.00 Build 0)  -->
<svg version="1.1" id="Layer_1" xmlns="http://www.w3.org/2000/svg" xmlns:xlink="http://www.w3.org/1999/xlink" x="0px" y="0px"
	 viewBox="0 0 500 500" style="enable-background:new 0 0 500 500;" xml:space="preserve">
<style type="text/css">
	.st0{fill:#30CDFC;}
	.st1{fill:#FFFFFF;}
</style>
<circle class="st0" cx="250" cy="250" r="250"/>
<path class="st1" d="M113.6,252c0-59.3,61.3-107.3,136.9-107.3c75.6,0,136.9,48.1,136.9,107.3c0,54.1-51,98.8-117.4,106.2l30.6,54
	L242,359.2C170.4,355.7,113.6,309.1,113.6,252z"/>
<ellipse transform="matrix(0.9871 -0.1602 0.1602 0.9871 -36.3582 51.6416)" class="st0" cx="302.1" cy="251.3" rx="15.9" ry="15.9"/>
<ellipse transform="matrix(0.7071 -0.7071 0.7071 0.7071 -104.3515 250.7448)" class="st0" cx="250.5" cy="251.3" rx="15.9" ry="15.9"/>
<ellipse transform="matrix(0.7071 -0.7071 0.7071 0.7071 -119.4745 214.2349)" class="st0" cx="198.9" cy="251.3" rx="15.9" ry="15.9"/>
</svg>
