<?xml version="1.0" encoding="utf-8"?>
<!-- Generator: Adobe Illustrator 24.2.3, SVG Export Plug-In . SVG Version: 6.00 Build 0)  -->
<svg version="1.1" id="Layer_1" xmlns="http://www.w3.org/2000/svg" xmlns:xlink="http://www.w3.org/1999/xlink" x="0px" y="0px"
	 viewBox="0 0 500 500" style="enable-background:new 0 0 500 500;" xml:space="preserve">
<style type="text/css">
	.st0{fill:#30CDFC;}
	.st1{fill:#FFFFFF;}
</style>
<circle class="st0" cx="250" cy="250" r="250"/>
<path class="st1" d="M191.5,101.5c8.3,3.1,11.6,10.1,13.4,17.9c3.6,15.6,7,31.3,10.3,47c0.5,2.4,0.6,4.9,0.7,7.3
	c0.1,7.5-3.4,12.6-10.5,15.2c-5,1.8-9.9,3.5-15,5c-4.9,1.5-7.6,4.8-8.7,9.6c-1.5,6.3-1.4,12.5,0.8,18.8c12.1,35.4,33,64.7,61.2,88.9
	c5.7,4.9,12.2,9.1,18.7,12.9c4.1,2.5,9.1,3,14,2.5c3.5-0.4,6.4-1.9,8.4-4.9c2.8-4,5.6-8,8.4-12.1c5.6-8.2,12.2-10.3,21.5-6.4
	c5,2.1,9.7,4.9,14.5,7.5c9,4.9,18,9.9,26.9,14.8c2.3,1.3,4.5,2.6,6.7,4.1c6,4,10.8,8.8,11.5,16.6c-0.3,2-0.6,4-0.9,5.9
	c-2,4.5-3.6,9.2-6,13.6c-10.6,19.1-26.6,30.8-48.4,33.9c-4.3,0.6-8.8,0.4-13.2,0.6c-3.4-0.5-6.8-1-10.3-1.5
	c-4.1-1.3-8.2-2.4-12.2-3.8c-20.1-7.2-37-19.4-52.8-33.4c-18.9-16.8-35.3-35.9-50.5-56c-18.6-24.6-35.5-50.4-47.7-78.9
	c-6.8-15.8-11.9-32.2-13.2-49.5c-0.4-5-0.3-10.1-0.4-15.2c0.5-3.4,1-6.8,1.5-10.3c0.3-0.8,0.6-1.5,0.8-2.3
	c6.7-25,23.2-40.2,47.9-46.7c5.4-1.4,11-1.5,16.6-2.2C187.5,100.9,189.5,101.2,191.5,101.5z"/>
</svg>
